<svg xmlns="http://www.w3.org/2000/svg" viewBox="0 0 64 36" width="64" height="36">
  <defs>
    <linearGradient id="mt-grad" x1="0%" y1="0%" x2="0%" y2="100%">
      <stop offset="0%" stop-color="#333333"/>
      <stop offset="100%" stop-color="#181818"/>
    </linearGradient>
  </defs>
  <!-- Brutal jagged mountain silhouette -->
  <path d="M0,36 L0,26 L5,20 L9,24 L14,14 L17,18 L21,8 L24,12 L28,4 L32,12 L36,6 L40,14 L43,10 L47,18 L52,12 L56,20 L60,16 L64,22 L64,36 Z"
        fill="url(#mt-grad)"/>
  <!-- Z — sharp brutal angles, white base + yellow accent line -->
  <g transform="rotate(-8, 32, 19)">
    <path d="M8,10 L56,10 L8,28 L56,28"
          stroke="#FFFFFF" stroke-width="7"
          stroke-linecap="butt" stroke-linejoin="miter" stroke-miterlimit="20"
          fill="none"/>
    <path d="M8,10 L56,10 L8,28 L56,28"
          stroke="#FFD700" stroke-width="1.5"
          stroke-linecap="butt" stroke-linejoin="miter" stroke-miterlimit="20"
          fill="none"/>
  </g>
</svg>
